HIERARCHY
ROOT root
{
	OFFSET	0	13.1	24.9
	CHANNELS 6  Xposition Yposition Zposition Xrotation Yrotation Zrotation
	JOINT spine_1
	{
		OFFSET	0	9.99999	0
		CHANNELS 3  Xrotation Yrotation Zrotation
		JOINT spine_2
		{
			OFFSET	0	112	-10
			CHANNELS 3  Xrotation Yrotation Zrotation
			JOINT spine_3
			{
				OFFSET	0	206.5	19.3
				CHANNELS 3  Xrotation Yrotation Zrotation
				JOINT spine_4
				{
					OFFSET	0	110.4	14.6
					CHANNELS 3  Xrotation Yrotation Zrotation
					JOINT neck_1
					{
						OFFSET	0	71.8	-50.3
						CHANNELS 3  Xrotation Yrotation Zrotation
						JOINT neck_2
						{
							OFFSET	0	86.2	-25.8
							CHANNELS 3  Xrotation Yrotation Zrotation
							JOINT head_ee
							{
								OFFSET	0	179.8	-8.7
								CHANNELS 3  Xrotation Yrotation Zrotation
								End Site
								{
									OFFSET	1	0	0
								}
							}
						}
					}
					JOINT left_clavicle
					{
						OFFSET	-43.2	22.4	-70.8
						CHANNELS 3  Xrotation Yrotation Zrotation
						JOINT left_shoulder
						{
							OFFSET	-93.9	-5.79999	48.7
							CHANNELS 3  Xrotation Yrotation Zrotation
							JOINT left_elbow
							{
								OFFSET	-291.4	-30.8	15.2
								CHANNELS 3  Xrotation Yrotation Zrotation
								JOINT left_lowarm_twist
								{
									OFFSET	-110.7	-3.89999	13.6
									CHANNELS 3  Xrotation Yrotation Zrotation
									JOINT left_hand
									{
										OFFSET	-110.7	-3.89999	13.6
										CHANNELS 3  Xrotation Yrotation Zrotation
										JOINT left_ee
										{
											OFFSET	-80.8	-5.10001	12.1
											CHANNELS 3  Xrotation Yrotation Zrotation
											End Site
											{
												OFFSET	1	0	0
											}
										}
									}
								}
							}
						}
					}
					JOINT right_clavicle
					{
						OFFSET	43.2	22.4	-70.8
						CHANNELS 3  Xrotation Yrotation Zrotation
						JOINT right_shoulder
						{
							OFFSET	93.9	-5.79999	48.7
							CHANNELS 3  Xrotation Yrotation Zrotation
							JOINT right_elbow
							{
								OFFSET	291.4	-30.8	15.2
								CHANNELS 3  Xrotation Yrotation Zrotation
								JOINT right_lowarm_twist
								{
									OFFSET	110.7	-3.89999	13.6
									CHANNELS 3  Xrotation Yrotation Zrotation
									JOINT right_hand
									{
										OFFSET	110.7	-3.89999	13.6
										CHANNELS 3  Xrotation Yrotation Zrotation
										JOINT right_ee
										{
											OFFSET	80.8	-5.10001	12.1
											CHANNELS 3  Xrotation Yrotation Zrotation
											End Site
											{
												OFFSET	1	0	0
											}
										}
									}
								}
							}
						}
					}
				}
			}
		}
	}
	JOINT left_hip
	{
		OFFSET	-82.8	-127.5	0.300001
		CHANNELS 3  Xrotation Yrotation Zrotation
		JOINT left_knee
		{
			OFFSET	-28.2	-396.7	2.2
			CHANNELS 3  Xrotation Yrotation Zrotation
			JOINT left_ankle
			{
				OFFSET	-11.7	-411.3	35.4
				CHANNELS 3  Xrotation Yrotation Zrotation
				JOINT left_toes
				{
					OFFSET	0	-60	-88.6
					CHANNELS 3  Xrotation Yrotation Zrotation
					JOINT left_foot_ee
					{
						OFFSET	-22.5	-16.5	-42.2
						CHANNELS 3  Xrotation Yrotation Zrotation
						End Site
						{
							OFFSET	1	0	0
						}
					}
				}
			}
		}
	}
	JOINT right_hip
	{
		OFFSET	82.8	-127.5	0.300001
		CHANNELS 3  Xrotation Yrotation Zrotation
		JOINT right_knee
		{
			OFFSET	28.2	-396.7	2.2
			CHANNELS 3  Xrotation Yrotation Zrotation
			JOINT right_ankle
			{
				OFFSET	11.7	-411.3	35.4
				CHANNELS 3  Xrotation Yrotation Zrotation
				JOINT right_toes
				{
					OFFSET	0	-60	-88.6
					CHANNELS 3  Xrotation Yrotation Zrotation
					JOINT right_foot_ee
					{
						OFFSET	22.5	-16.5	-42.2
						CHANNELS 3  Xrotation Yrotation Zrotation
						End Site
						{
							OFFSET	1	0	0
						}
					}
				}
			}
		}
	}
}
MOTION
Frames: 9
Frame Time: 0.02
823.764888211 637.965 -1735.55567367 6.18912604362 37.8501547569 11.6481227599 -0.641358 -0.654482 -4.15132 -0.631857 -0.389234 -4.18447 -0.596712 0.542974 -4.16734 -0.62092 -0.121393 -4.20075 -17.3009 3.33678 8.59675 -17.0948 1.63745 9.26733 -0.0 0.0 -0.0 -2.05798 23.1355 -0.15759 10.8925 -26.6019 65.6085 1.70244 -40.1388 0.622014 -24.1025 -1.44001 2.70171 -0.741325 3.9244 -3.24539 -0.0 0.0 -0.0 8.57212 13.7205 -16.6074 -29.7877 27.8381 -55.7688 0.284018 8.00879 -0.0198824 -55.4311 4.72064 -4.93638 -8.44313 -3.66023 73.4422 0.0 0.0 0.0 12.5901 7.48634 -22.5116 -19.3041 0.30327 2.93285 37.8215 6.27118 -4.66492 -36.2914 0.0 0.0 -0.0 0.0 -0.0 29.8909 31.9506 -25.0532 -47.8089 1.03674 -7.05469 35.1302 -20.8045 4.57079 31.5548 -0.0 -0.0 0.0 0.0 0.0 
800.572442865 653.424 -1740.9291465 5.79720203939 36.1324351806 12.4487222579 -0.857279 -0.303495 -3.60715 -0.850044 -0.0735008 -3.61914 -0.840474 0.741749 -3.54317 -0.857948 0.173246 -3.61574 -17.8164 2.29179 8.03225 -17.6348 0.0177182 8.36691 -0.0 0.0 -0.0 -1.19392 24.4514 1.22384 11.6727 -25.631 65.2068 1.81101 -41.8919 0.693271 -24.9986 -1.51465 2.78897 -1.30153 2.46394 -7.61527 -0.0 0.0 -0.0 8.64641 13.9226 -16.7603 -32.247 27.8198 -56.5794 0.353741 9.9394 -0.03076 -56.3443 4.83194 -4.9729 -8.50609 -4.25015 73.8344 0.0 0.0 0.0 12.0 7.93365 -21.7898 -20.3093 0.291833 3.08666 38.9688 8.20897 -4.77442 -35.683 0.0 0.0 -0.0 0.0 -0.0 32.7088 31.4466 -28.4467 -44.6981 0.792379 -6.64307 37.8982 -19.5998 4.8209 32.9668 -0.0 -0.0 0.0 0.0 0.0 
799.05741294 653.02 -1747.57737485 6.96894541856 34.8822732561 12.5139838995 -0.913917 -0.122234 -3.69582 -0.906327 0.113025 -3.69611 -0.908795 0.945464 -3.57509 -0.926438 0.369383 -3.67937 -18.1821 1.48848 7.57208 -18.0232 -1.22624 7.63856 -0.0 0.0 -0.0 -0.717066 25.3794 1.98221 13.165 -23.9179 63.7791 1.98292 -44.4829 0.810954 -25.3248 -1.54216 2.82045 -1.70911 1.39416 -10.848 -0.0 0.0 -0.0 8.61075 14.181 -16.6706 -34.1243 28.204 -56.9537 0.40233 11.2717 -0.0397031 -57.1021 4.92472 -5.00186 -8.52041 -4.59887 73.4817 0.0 0.0 0.0 12.3344 7.8646 -21.796 -20.6776 0.286968 3.14297 39.6723 9.60036 -4.84478 -35.2367 0.0 0.0 -0.0 0.0 -0.0 30.6167 32.4775 -28.3305 -42.5352 0.635883 -6.34949 40.351 -18.7788 5.03334 34.121 -0.0 -0.0 0.0 0.0 0.0 
800.08612278 653.02 -1751.289628 6.896131328 34.0091851132 12.6427121365 -0.913917 -0.122234 -3.69582 -0.906327 0.113025 -3.69611 -0.908795 0.945464 -3.57509 -0.926438 0.369383 -3.67937 -18.1821 1.48848 7.57208 -18.0232 -1.22624 7.63856 -0.0 0.0 -0.0 -0.717066 25.3794 1.98221 13.165 -23.9179 63.7791 1.98292 -44.4829 0.810954 -25.3248 -1.54216 2.82045 -1.70911 1.39416 -10.848 -0.0 0.0 -0.0 8.61075 14.181 -16.6706 -34.1243 28.204 -56.9537 0.40233 11.2717 -0.0397031 -57.1021 4.92472 -5.00186 -8.52041 -4.59887 73.4817 0.0 0.0 0.0 12.3344 7.8646 -21.796 -20.6776 0.286968 3.14297 39.6723 9.60036 -4.84478 -35.2367 0.0 0.0 -0.0 0.0 -0.0 30.6167 32.4775 -28.3305 -42.5352 0.635883 -6.34949 40.351 -18.7788 5.03334 34.121 -0.0 -0.0 0.0 0.0 0.0 
782.937804197 654.09 -1770.66469016 5.72624534213 32.8085643041 14.287100576 -0.417225 -0.0083848 -3.5469 -0.410254 0.217187 -3.54027 -0.420297 0.982736 -3.40822 -0.436244 0.432491 -3.52048 -18.5326 -0.327497 6.23711 -18.4447 -3.96099 5.69069 -0.0 0.0 -0.0 0.463277 22.4738 3.25328 14.354 -21.7191 59.0021 2.18974 -47.3213 0.959531 -25.0719 -1.52082 2.79606 -2.15259 -1.85495 -15.4082 -0.0 0.0 -0.0 8.89029 15.3639 -17.2249 -36.843 29.6096 -58.575 0.43271 12.0986 -0.0458562 -58.7928 5.13301 -5.06201 -8.47749 -5.09477 71.5126 0.0 0.0 0.0 10.6821 6.53707 -24.7135 -20.238 0.292733 3.07577 39.3884 13.9146 -4.8622 -34.6348 0.0 0.0 -0.0 0.0 -0.0 30.21 35.4777 -28.9444 -21.5513 -0.273979 -3.2764 37.2599 -20.3156 4.7743 36.2769 -0.0 -0.0 0.0 0.0 0.0 
777.966470009 649.341 -1779.64808378 5.81058479211 32.3605436721 14.4235243656 -0.282653 -0.0291665 -3.57182 -0.275578 0.19803 -3.56645 -0.284659 0.961572 -3.44023 -0.300942 0.406545 -3.54875 -18.3956 -0.51514 5.99686 -18.3182 -4.20781 5.39655 -0.0 0.0 -0.0 0.568039 22.3346 3.38664 14.3107 -21.6551 58.4952 2.20411 -47.5079 0.970109 -25.0304 -1.51733 2.79205 -2.18373 -2.32451 -15.8454 -0.0 0.0 -0.0 8.90212 15.6924 -17.2338 -37.0118 29.8709 -58.7519 0.424264 11.8692 -0.0441026 -59.0325 5.16268 -5.07004 -8.4618 -5.01318 71.317 0.0 0.0 0.0 11.4456 6.67182 -23.2769 -19.9073 0.29673 3.02518 39.1993 14.3802 -4.85129 -34.6014 0.0 0.0 -0.0 0.0 -0.0 30.8268 35.8262 -29.5534 -18.8123 -0.307881 -2.85753 35.856 -21.0268 4.64985 36.3992 -0.0 -0.0 0.0 0.0 0.0 
778.678905649 649.341 -1781.55703437 5.78418618756 31.9469203012 14.4731275029 -0.282653 -0.0291665 -3.57182 -0.275578 0.19803 -3.56645 -0.284659 0.961572 -3.44023 -0.300942 0.406545 -3.54875 -18.3956 -0.51514 5.99686 -18.3182 -4.20781 5.39655 -0.0 0.0 -0.0 0.568039 22.3346 3.38664 14.3107 -21.6551 58.4952 2.20411 -47.5079 0.970109 -25.0304 -1.51733 2.79205 -2.18373 -2.32451 -15.8454 -0.0 0.0 -0.0 8.90212 15.6924 -17.2338 -37.0118 29.8709 -58.7519 0.424264 11.8692 -0.0441026 -59.0325 5.16268 -5.07004 -8.4618 -5.01318 71.317 0.0 0.0 0.0 11.4456 6.67182 -23.2769 -19.9073 0.29673 3.02518 39.1993 14.3802 -4.85129 -34.6014 0.0 0.0 -0.0 0.0 -0.0 30.8268 35.8262 -29.5534 -18.8123 -0.307881 -2.85753 35.856 -21.0268 4.64985 36.3992 -0.0 -0.0 0.0 0.0 0.0 
778.912974864 649.341 -1782.17513338 5.7757391366 31.8127471995 14.4891214691 -0.282653 -0.0291665 -3.57182 -0.275578 0.19803 -3.56645 -0.284659 0.961572 -3.44023 -0.300942 0.406545 -3.54875 -18.3956 -0.51514 5.99686 -18.3182 -4.20781 5.39655 -0.0 0.0 -0.0 0.568039 22.3346 3.38664 14.3107 -21.6551 58.4952 2.20411 -47.5079 0.970109 -25.0304 -1.51733 2.79205 -2.18373 -2.32451 -15.8454 -0.0 0.0 -0.0 8.90212 15.6924 -17.2338 -37.0118 29.8709 -58.7519 0.424264 11.8692 -0.0441026 -59.0325 5.16268 -5.07004 -8.4618 -5.01318 71.317 0.0 0.0 0.0 11.4456 6.67182 -23.2769 -19.9073 0.29673 3.02518 39.1993 14.3802 -4.85129 -34.6014 0.0 0.0 -0.0 0.0 -0.0 30.8268 35.8262 -29.5534 -18.8123 -0.307881 -2.85753 35.856 -21.0268 4.64985 36.3992 -0.0 -0.0 0.0 0.0 0.0 
779.28890515 649.341 -1783.15876591 5.7623970662 31.5989741062 14.5145078772 -0.282653 -0.0291665 -3.57182 -0.275578 0.19803 -3.56645 -0.284659 0.961572 -3.44023 -0.300942 0.406545 -3.54875 -18.3956 -0.51514 5.99686 -18.3182 -4.20781 5.39655 -0.0 0.0 -0.0 0.568039 22.3346 3.38664 14.3107 -21.6551 58.4952 2.20411 -47.5079 0.970109 -25.0304 -1.51733 2.79205 -2.18373 -2.32451 -15.8454 -0.0 0.0 -0.0 8.90212 15.6924 -17.2338 -37.0118 29.8709 -58.7519 0.424264 11.8692 -0.0441026 -59.0325 5.16268 -5.07004 -8.4618 -5.01318 71.317 0.0 0.0 0.0 11.4456 6.67182 -23.2769 -19.9073 0.29673 3.02518 39.1993 14.3802 -4.85129 -34.6014 0.0 0.0 -0.0 0.0 -0.0 30.8268 35.8262 -29.5534 -18.8123 -0.307881 -2.85753 35.856 -21.0268 4.64985 36.3992 -0.0 -0.0 0.0 0.0 0.0 
